<?xml version="1.0" encoding="UTF-8" standalone="no"?>
<!-- Created with Inkscape (http://www.inkscape.org/) -->

<svg
   xmlns:dc="http://purl.org/dc/elements/1.1/"
   xmlns:cc="http://creativecommons.org/ns#"
   xmlns:rdf="http://www.w3.org/1999/02/22-rdf-syntax-ns#"
   xmlns:svg="http://www.w3.org/2000/svg"
   xmlns="http://www.w3.org/2000/svg"
   xmlns:xlink="http://www.w3.org/1999/xlink"
   xmlns:sodipodi="http://sodipodi.sourceforge.net/DTD/sodipodi-0.dtd"
   xmlns:inkscape="http://www.inkscape.org/namespaces/inkscape"
   width="80"
   height="100"
   id="svg2"
   version="1.1"
   inkscape:version="0.48.1 r9760"
   enable-background="new"
   sodipodi:docname="panda_child_4.svg"
   inkscape:export-filename="/home/jbw/privat/pukullalat/data/intermediate/panda_child_4.png"
   inkscape:export-xdpi="337.5"
   inkscape:export-ydpi="337.5">
  <defs
     id="defs4" />
  <sodipodi:namedview
     id="base"
     pagecolor="#ffffff"
     bordercolor="#666666"
     borderopacity="1.0"
     inkscape:pageopacity="0.0"
     inkscape:pageshadow="2"
     inkscape:zoom="4.2850671"
     inkscape:cx="11.504681"
     inkscape:cy="22.803282"
     inkscape:document-units="px"
     inkscape:current-layer="layer2"
     showgrid="false"
     inkscape:window-width="1600"
     inkscape:window-height="842"
     inkscape:window-x="0"
     inkscape:window-y="26"
     inkscape:window-maximized="1" />
  <metadata
     id="metadata7">
    <rdf:RDF>
      <cc:Work
         rdf:about="">
        <dc:format>image/svg+xml</dc:format>
        <dc:type
           rdf:resource="http://purl.org/dc/dcmitype/StillImage" />
        <dc:title></dc:title>
      </cc:Work>
    </rdf:RDF>
  </metadata>
  <g
     inkscape:label="Panda Pic"
     inkscape:groupmode="layer"
     id="layer1"
     transform="translate(0,-952.36218)"
     sodipodi:insensitive="true"
     style="opacity:0.1288889;display:none">
    <image
       y="959.99933"
       x="5.963016"
       id="image2993"
       xlink:href="file:///home/jbw/privat/pukullalat/data/intermediate/pando_bamboo.png"
       height="74.287186"
       width="64.735977" />
  </g>
  <g
     inkscape:groupmode="layer"
     id="layer3"
     inkscape:label="Panda Pic 2"
     sodipodi:insensitive="true"
     style="opacity:0.11320753;display:none">
    <image
       y="-112.24361"
       x="-50.713913"
       id="image3039"
       xlink:href="file:///home/jbw/privat/pukullalat/data/intermediate/panda-cubs.gif"
       height="181.33578"
       width="141.57445"
       transform="matrix(-0.49732435,0.86756469,-0.86756469,-0.49732435,0,0)" />
  </g>
  <g
     inkscape:groupmode="layer"
     id="layer2"
     inkscape:label="Panda"
     style="opacity:1">
    <path
       style="color:#000000;fill:#000000;fill-opacity:1;fill-rule:nonzero;stroke:none;stroke-width:0.40000001;marker:none;visibility:visible;display:inline;overflow:visible;enable-background:accumulate"
       d="m 51.667015,63.20472 c -2.556389,3.329892 -6.047081,-3.765793 -8.91527,-6.831214 -2.586366,-2.764213 -5.608129,-8.957 -3.062469,-12.558038 2.423305,-3.427958 5.656969,-5.031891 8.986859,-2.475502 3.329891,2.556389 5.547271,18.53486 2.99088,21.864754 z"
       id="path3046"
       inkscape:connector-curvature="0"
       sodipodi:nodetypes="sssss" />
    <path
       style="color:#000000;fill:#000000;fill-opacity:1;fill-rule:nonzero;stroke:none;stroke-width:0.60000002;marker:none;visibility:visible;display:inline;overflow:visible;enable-background:accumulate"
       d="m 31.655043,82.059644 c -4.892144,-1.154616 -8.897572,-3.601827 -8.743923,-7.497598 0.326971,-8.290385 4.089685,-2.296871 6.018755,-10.744205 3.54027,0.559323 11.778394,7.765214 12.162056,11.637618 0.402807,5.063661 -3.874836,7.916907 -9.436888,6.604185 z"
       id="path3875"
       inkscape:connector-curvature="0"
       sodipodi:nodetypes="ssccs" />
    <path
       style="color:#000000;fill:#000000;fill-opacity:1;fill-rule:nonzero;stroke:none;stroke-width:0.60000002;marker:none;visibility:visible;display:inline;overflow:visible;enable-background:accumulate"
       d="m 23.367796,66.204752 c 0.394984,-4.542517 0.87085,-8.972511 -1.732333,-12.3193 -1.22588,-1.576057 0.710361,-4.997945 3.155381,-6.431791 3.193563,-2.123799 7.820053,-0.836258 9.051748,1.545395 1.359632,2.629041 0.591001,6.508161 -0.745763,7.582121 -0.960238,3.226459 -4.110445,13.83581 -9.729033,9.623575 z"
       id="path3871"
       inkscape:connector-curvature="0"
       sodipodi:nodetypes="cscscc" />
    <path
       style="color:#000000;fill:#000000;fill-opacity:1;fill-rule:nonzero;stroke:none;stroke-width:0.60000002;marker:none;visibility:visible;display:inline;overflow:visible;enable-background:accumulate"
       d="m 83.883144,76.429066 c -3.108582,2.687229 -6.552032,4.148964 -9.449896,2.083734 -2.897862,-2.065231 -2.955784,-5.495469 -0.384098,-8.653977 2.571687,-3.158508 6.137537,-4.674215 9.243399,-2.888171 3.50675,2.016576 4.354561,6.204636 0.590595,9.458414 z"
       id="path3850-6"
       inkscape:connector-curvature="0"
       sodipodi:nodetypes="sssss" />
    <path
       style="color:#000000;fill:#000000;fill-opacity:1;fill-rule:nonzero;stroke:none;stroke-width:0.60000002;marker:none;visibility:visible;display:inline;overflow:visible;enable-background:accumulate"
       d="m 82.685742,49.898884 c -3.77268,-1.087541 -6.773043,-3.192646 -6.734063,-6.922771 0.03898,-3.730127 2.676539,-5.818872 6.525414,-5.475109 3.848875,0.343764 6.957454,2.522496 7.248232,6.266328 0.328312,4.227062 -2.471506,7.448382 -7.039583,6.131552 z"
       id="path3850"
       inkscape:connector-curvature="0"
       sodipodi:nodetypes="sssss" />
    <path
       style="color:#000000;fill:#000000;fill-opacity:1;fill-rule:nonzero;stroke:none;stroke-width:2;marker:none;visibility:visible;display:inline;overflow:visible;enable-background:accumulate"
       d="M 37.294741,93.778424 C 24.551064,93.152195 14.907723,86.677692 15.525006,74.116068 16.14229,61.554444 33.530923,52.302609 46.274599,52.928839 59.018275,53.555068 65.268433,59.774395 64.65115,72.33602 64.033867,84.897643 50.038416,94.404653 37.294741,93.778424 z"
       id="path2997"
       inkscape:connector-curvature="0"
       sodipodi:nodetypes="sssss" />
    <path
       style="color:#000000;fill:#ffffff;fill-opacity:1;fill-rule:nonzero;stroke:none;stroke-width:2;marker:none;visibility:visible;display:inline;overflow:visible;enable-background:accumulate"
       d="M 33.204188,80.957487 C 27.863663,81.061123 19.892963,74.922134 20.780179,68.183434 21.410682,63.394548 31.374988,56.450547 36.290406,56.692092 c 4.915418,0.241546 9.319959,10.715703 9.033253,15.5374 -0.292744,4.923287 -7.635832,8.640986 -12.119471,8.727995 z"
       id="path3776"
       inkscape:connector-curvature="0"
       sodipodi:nodetypes="sssss" />
    <path
       style="color:#000000;fill:#ffffff;fill-opacity:1;fill-rule:nonzero;stroke:#000000;stroke-width:0.40000001;stroke-miterlimit:4;stroke-opacity:1;stroke-dasharray:none;marker:none;visibility:visible;display:inline;overflow:visible;enable-background:accumulate"
       d="M 67.716042,77.955706 C 58.248281,79.188031 53.778982,66.887306 52.654675,56.646239 51.3355,44.630178 57.691011,34.209228 69.378811,37.39437 c 10.155854,2.767659 17.827303,12.092664 17.490302,18.950593 -0.361299,7.352379 -8.7149,20.252108 -19.153071,21.610743 z"
       id="path3779"
       inkscape:connector-curvature="0"
       sodipodi:nodetypes="sssss" />
    <path
       style="font-size:medium;font-style:normal;font-variant:normal;font-weight:normal;font-stretch:normal;text-indent:0;text-align:start;text-decoration:none;line-height:normal;letter-spacing:normal;word-spacing:normal;text-transform:none;direction:ltr;block-progression:tb;writing-mode:lr-tb;text-anchor:start;baseline-shift:baseline;color:#000000;fill:#000000;fill-opacity:1;fill-rule:nonzero;stroke:none;stroke-width:0.60000002;marker:none;visibility:visible;display:inline;overflow:visible;enable-background:accumulate;font-family:Sans;-inkscape-font-specification:Sans"
       d="m 65.214222,53.149566 c -0.504863,-6.539215 -4.939695,-9.435699 -8.121272,-9.190063 -1.62334,0.125331 -1.778765,1.227267 -2.968426,3.222581 -1.189661,1.995318 -1.926543,4.752288 -1.674526,8.016503 0.504416,6.533403 3.222107,9.763352 6.41325,9.516977 1.628122,-0.125707 3.332943,-1.419251 4.571673,-3.457504 1.238733,-2.038251 2.031541,-4.841379 1.779301,-8.108494 z m -0.253436,0.120307 c 0.243875,3.158772 -0.817421,5.78016 -1.994331,7.716686 -1.176909,1.936527 -2.769509,3.135029 -4.143997,3.200733 -0.918386,0.0439 -0.722656,0.344197 -3.290216,-2.057144 -0.750926,-0.702314 -0.202798,-1.285224 -1.087632,-3.352992 -0.868713,-2.030122 -1.458035,-2.855594 -1.466364,-3.619364 -0.02093,-1.918805 1.80427,-5.476786 1.614729,-7.704228 1.119637,-2.695242 1.208772,-2.886062 2.603774,-3.063688 2.804371,-0.357076 7.276665,2.567428 7.764037,8.879997 z"
       id="path3841"
       inkscape:connector-curvature="0"
       sodipodi:nodetypes="ssssssssssssscss" />
    <path
       style="color:#000000;fill:#000000;fill-opacity:1;fill-rule:nonzero;stroke:none;stroke-width:2;marker:none;visibility:visible;display:inline;overflow:visible;enable-background:accumulate"
       d="m 66.527725,53.724864 c -3.983982,-1.239652 -5.689476,-5.492748 -5.548299,-7.596644 0.235068,-3.503153 3.632796,-4.745989 8.25146,-1.090749 3.271761,2.589293 6.319602,5.11784 5.693111,7.13125 -0.62649,2.013409 -4.412289,2.795798 -8.396274,1.556145 z"
       id="path3782"
       inkscape:connector-curvature="0"
       sodipodi:nodetypes="sssss" />
    <path
       sodipodi:type="arc"
       style="color:#000000;fill:#ffffff;fill-opacity:1;fill-rule:nonzero;stroke:none;stroke-width:2;marker:none;visibility:visible;display:inline;overflow:visible;enable-background:accumulate"
       id="path3803"
       sodipodi:cx="31.435644"
       sodipodi:cy="33.333332"
       sodipodi:rx="3.3828382"
       sodipodi:ry="3.7953796"
       d="m 34.818482,33.333332 a 3.3828382,3.7953796 0 1 1 -6.765676,0 3.3828382,3.7953796 0 1 1 6.765676,0 z"
       transform="matrix(-0.29965529,0.96302944,-0.86857085,-0.27026364,105.42842,28.71115)" />
    <path
       transform="matrix(-0.25684739,0.82545379,-0.6846382,-0.21303134,98.698007,31.190272)"
       d="m 34.818482,33.333332 a 3.3828382,3.7953796 0 1 1 -6.765676,0 3.3828382,3.7953796 0 1 1 6.765676,0 z"
       sodipodi:ry="3.7953796"
       sodipodi:rx="3.3828382"
       sodipodi:cy="33.333332"
       sodipodi:cx="31.435644"
       id="path3805"
       style="color:#000000;fill:#a892ff;fill-opacity:1;fill-rule:nonzero;stroke:none;stroke-width:2;marker:none;visibility:visible;display:inline;overflow:visible;enable-background:accumulate"
       sodipodi:type="arc" />
    <path
       sodipodi:type="arc"
       style="color:#000000;fill:#000000;fill-opacity:1;fill-rule:nonzero;stroke:none;stroke-width:2;marker:none;visibility:visible;display:inline;overflow:visible;enable-background:accumulate"
       id="path3807"
       sodipodi:cx="31.435644"
       sodipodi:cy="33.333332"
       sodipodi:rx="3.3828382"
       sodipodi:ry="3.7953796"
       d="m 34.818482,33.333332 a 3.3828382,3.7953796 0 1 1 -6.765676,0 3.3828382,3.7953796 0 1 1 6.765676,0 z"
       transform="matrix(-0.21047218,0.67641353,-0.51092406,-0.15897862,91.52469,33.969409)" />
    <path
       transform="matrix(-0.05707718,0.18343413,-0.1338794,-0.04165779,75.415605,44.295496)"
       d="m 34.818482,33.333332 a 3.3828382,3.7953796 0 1 1 -6.765676,0 3.3828382,3.7953796 0 1 1 6.765676,0 z"
       sodipodi:ry="3.7953796"
       sodipodi:rx="3.3828382"
       sodipodi:cy="33.333332"
       sodipodi:cx="31.435644"
       id="path3809"
       style="color:#000000;fill:#ffffff;fill-opacity:1;fill-rule:nonzero;stroke:none;stroke-width:2;marker:none;visibility:visible;display:inline;overflow:visible;enable-background:accumulate"
       sodipodi:type="arc" />
    <path
       style="color:#000000;fill:#000000;fill-opacity:1;fill-rule:nonzero;stroke:none;stroke-width:2;marker:none;visibility:visible;display:inline;overflow:visible;enable-background:accumulate"
       d="m 66.96877,58.560804 c -3.571364,-0.0923 -4.360278,3.522815 -6.199055,6.047979 -1.548252,2.126196 0.182138,4.420762 5.748852,3.268157 3.937421,-0.815253 6.923551,-4.799451 7.598662,-6.719352 0.675113,-1.919901 -3.122823,-2.492742 -7.148458,-2.596787 z"
       id="path3782-9"
       inkscape:connector-curvature="0"
       sodipodi:nodetypes="sssss" />
    <path
       sodipodi:type="arc"
       style="color:#000000;fill:#ffffff;fill-opacity:1;fill-rule:nonzero;stroke:none;stroke-width:2;marker:none;visibility:visible;display:inline;overflow:visible;enable-background:accumulate"
       id="path3803-7"
       sodipodi:cx="31.435644"
       sodipodi:cy="33.333332"
       sodipodi:rx="3.3828382"
       sodipodi:ry="3.7953796"
       d="m 34.818482,33.333332 a 3.3828382,3.7953796 0 1 1 -6.765676,0 3.3828382,3.7953796 0 1 1 6.765676,0 z"
       transform="matrix(-0.32291099,0.91830308,-0.82823146,-0.2912383,103.97805,43.283046)" />
    <path
       transform="matrix(-0.26332621,0.74885427,-0.65284128,-0.22956432,97.021833,46.510691)"
       d="m 34.818482,33.333332 a 3.3828382,3.7953796 0 1 1 -6.765676,0 3.3828382,3.7953796 0 1 1 6.765676,0 z"
       sodipodi:ry="3.7953796"
       sodipodi:rx="3.3828382"
       sodipodi:cy="33.333332"
       sodipodi:cx="31.435644"
       id="path3805-3"
       style="color:#000000;fill:#a892ff;fill-opacity:1;fill-rule:nonzero;stroke:none;stroke-width:2;marker:none;visibility:visible;display:inline;overflow:visible;enable-background:accumulate"
       sodipodi:type="arc" />
    <path
       sodipodi:type="arc"
       style="color:#000000;fill:#000000;fill-opacity:1;fill-rule:nonzero;stroke:none;stroke-width:2;marker:none;visibility:visible;display:inline;overflow:visible;enable-background:accumulate"
       id="path3807-1"
       sodipodi:cx="31.435644"
       sodipodi:cy="33.333332"
       sodipodi:rx="3.3828382"
       sodipodi:ry="3.7953796"
       d="m 34.818482,33.333332 a 3.3828382,3.7953796 0 1 1 -6.765676,0 3.3828382,3.7953796 0 1 1 6.765676,0 z"
       transform="matrix(-0.21527397,0.61220204,-0.48719499,-0.17131665,90.059227,48.785404)" />
    <path
       transform="matrix(-0.05285744,0.15031743,-0.12766159,-0.04489076,74.28185,58.004549)"
       d="m 34.818482,33.333332 a 3.3828382,3.7953796 0 1 1 -6.765676,0 3.3828382,3.7953796 0 1 1 6.765676,0 z"
       sodipodi:ry="3.7953796"
       sodipodi:rx="3.3828382"
       sodipodi:cy="33.333332"
       sodipodi:cx="31.435644"
       id="path3809-0"
       style="color:#000000;fill:#ffffff;fill-opacity:1;fill-rule:nonzero;stroke:none;stroke-width:2;marker:none;visibility:visible;display:inline;overflow:visible;enable-background:accumulate"
       sodipodi:type="arc" />
    <path
       style="color:#000000;fill:#000000;fill-opacity:1;fill-rule:nonzero;stroke:none;stroke-width:2;marker:none;visibility:visible;display:inline;overflow:visible;enable-background:accumulate"
       d="m 60.007845,58.361908 c -0.569094,0.01433 -1.816259,-1.504628 -1.879184,-4.004584 -0.06292,-2.499954 0.952905,-4.231352 1.522,-4.245677 0.569096,-0.01433 1.530938,1.431664 1.593862,3.931619 0.06292,2.499956 -0.667583,4.304317 -1.236678,4.318642 z"
       id="path3838"
       inkscape:connector-curvature="0"
       sodipodi:nodetypes="sssss" />
    <path
       style="color:#000000;fill:#000000;fill-opacity:1;fill-rule:nonzero;stroke:none;stroke-width:0.60000002;marker:none;visibility:visible;display:inline;overflow:visible;enable-background:accumulate"
       d="m 55.624674,50.767736 c -1.07129,1.696903 -2.047187,6.146908 0.607853,8.172938 -0.644891,-2.218104 -1.22448,-3.08695 0.292378,-4.560944 -1.470585,-0.49005 -0.900231,-3.611994 -0.900231,-3.611994 z"
       id="path3848"
       inkscape:connector-curvature="0"
       sodipodi:nodetypes="cccc" />
    <path
       style="color:#000000;fill:#000000;fill-opacity:1;fill-rule:nonzero;stroke:none;stroke-width:0.60000002;marker:none;visibility:visible;display:inline;overflow:visible;enable-background:accumulate"
       d="M 10.366841,75.191295 C 3.5128438,68.408566 4.0747341,58.573011 5.6223419,56.175932 6.918716,54.167986 16.186026,46.878469 19.352934,51.690156 c 1.970425,2.993792 -1.424806,12.290246 3.652331,12.658935 5.81492,0.422264 1.650325,12.551053 -0.869099,14.819606 -1.485334,1.337432 -2.861077,6.781961 -7.062348,0.181995 -1.066418,-1.675277 -3.071421,-2.540849 -4.706977,-4.159397 z"
       id="path3875-9"
       inkscape:connector-curvature="0"
       sodipodi:nodetypes="sssssss" />
    <path
       style="color:#000000;fill:#000000;fill-opacity:1;fill-rule:nonzero;stroke:none;stroke-width:0.40000001;marker:none;visibility:visible;display:inline;overflow:visible;enable-background:accumulate"
       d="m 59.646907,83.336168 c -10.718746,-5.05444 -24.348272,3.459973 -25.516222,-14.22483 -0.7573,-11.466814 8.617028,-11.38136 11.326517,-9.42826 3.198243,2.305411 1.029775,3.805685 1.443764,8.88821 3.523503,14.647498 9.137871,-1.298034 17.338089,7.334873 3.668698,3.952024 -4.592148,7.430007 -4.592148,7.430007 z"
       id="path3042"
       inkscape:connector-curvature="0"
       sodipodi:nodetypes="cssccc" />
  </g>
</svg>
