<?xml version="1.0" encoding="UTF-8" standalone="no"?>
<!-- Created with Inkscape (http://www.inkscape.org/) -->

<svg
   xmlns:dc="http://purl.org/dc/elements/1.1/"
   xmlns:cc="http://creativecommons.org/ns#"
   xmlns:rdf="http://www.w3.org/1999/02/22-rdf-syntax-ns#"
   xmlns:svg="http://www.w3.org/2000/svg"
   xmlns="http://www.w3.org/2000/svg"
   xmlns:xlink="http://www.w3.org/1999/xlink"
   xmlns:sodipodi="http://sodipodi.sourceforge.net/DTD/sodipodi-0.dtd"
   xmlns:inkscape="http://www.inkscape.org/namespaces/inkscape"
   width="80"
   height="100"
   id="svg2"
   version="1.1"
   inkscape:version="0.48.1 r9760"
   enable-background="new"
   sodipodi:docname="panda_child_2.svg"
   inkscape:export-filename="/home/jbw/privat/pukullalat/data/intermediate/panda_child_2.png"
   inkscape:export-xdpi="337.5"
   inkscape:export-ydpi="337.5">
  <defs
     id="defs4" />
  <sodipodi:namedview
     id="base"
     pagecolor="#ffffff"
     bordercolor="#666666"
     borderopacity="1.0"
     inkscape:pageopacity="0.0"
     inkscape:pageshadow="2"
     inkscape:zoom="6.06"
     inkscape:cx="17.392739"
     inkscape:cy="50"
     inkscape:document-units="px"
     inkscape:current-layer="layer2"
     showgrid="false"
     inkscape:window-width="1600"
     inkscape:window-height="842"
     inkscape:window-x="0"
     inkscape:window-y="26"
     inkscape:window-maximized="1" />
  <metadata
     id="metadata7">
    <rdf:RDF>
      <cc:Work
         rdf:about="">
        <dc:format>image/svg+xml</dc:format>
        <dc:type
           rdf:resource="http://purl.org/dc/dcmitype/StillImage" />
        <dc:title></dc:title>
      </cc:Work>
    </rdf:RDF>
  </metadata>
  <g
     inkscape:label="Panda Pic"
     inkscape:groupmode="layer"
     id="layer1"
     transform="translate(0,-952.36218)"
     sodipodi:insensitive="true"
     style="opacity:0.1288889;display:none">
    <image
       y="959.99933"
       x="5.963016"
       id="image2993"
       xlink:href="file:///home/jbw/privat/pukullalat/data/intermediate/pando_bamboo.png"
       height="74.287186"
       width="64.735977" />
  </g>
  <g
     inkscape:groupmode="layer"
     id="layer3"
     inkscape:label="Panda Pic 2"
     sodipodi:insensitive="true"
     style="opacity:0.11320753;display:none">
    <image
       y="-112.24361"
       x="-50.713913"
       id="image3039"
       xlink:href="file:///home/jbw/privat/pukullalat/data/intermediate/panda-cubs.gif"
       height="181.33578"
       width="141.57445"
       transform="matrix(-0.49732435,0.86756469,-0.86756469,-0.49732435,0,0)" />
  </g>
  <g
     inkscape:groupmode="layer"
     id="layer2"
     inkscape:label="Panda"
     style="opacity:1">
    <path
       style="color:#000000;fill:#000000;fill-opacity:1;fill-rule:nonzero;stroke:none;stroke-width:0.40000001;marker:none;visibility:visible;display:inline;overflow:visible;enable-background:accumulate"
       d="m 44.568617,50.952017 c 0,4.198012 -7.089774,0.695331 -11.231536,0.01041 -3.734797,-0.617619 -9.902793,-3.689669 -10.076419,-8.096223 -0.165281,-4.194756 1.422963,-7.436155 5.620974,-7.436155 4.198012,0 15.686981,11.323953 15.686981,15.521968 z"
       id="path3046"
       inkscape:connector-curvature="0"
       sodipodi:nodetypes="sssss" />
    <path
       style="color:#000000;fill:#000000;fill-opacity:1;fill-rule:nonzero;stroke:none;stroke-width:0.60000001999999997;marker:none;visibility:visible;display:inline;overflow:visible;enable-background:accumulate"
       d="m 54.650505,82.302655 c -3.4818,3.625365 -7.62573,5.829938 -10.902129,3.716682 -6.972333,-4.497106 0.101791,-4.689432 -6.191038,-10.645863 2.281801,-2.764008 12.675558,-6.193492 16.205053,-4.554781 4.564985,2.227967 4.846696,7.362155 0.888114,11.483962 z"
       id="path3875"
       inkscape:connector-curvature="0"
       sodipodi:nodetypes="ssccs" />
    <path
       style="color:#000000;fill:#000000;fill-opacity:1;fill-rule:nonzero;stroke:none;stroke-width:0.60000001999999997;marker:none;visibility:visible;display:inline;overflow:visible;enable-background:accumulate"
       d="M 40.097344,81.796642 C 36.061207,79.675306 33.22639,80.26063 29.133179,81.3666 c -1.92756,0.520819 -4.74812,-5.13251 -5.124593,-7.941831 -0.723172,-3.766483 1.601454,-7.72835 4.274151,-7.942917 2.950314,-0.236853 4.69364,2.222652 5.166926,3.870781 2.603875,2.133524 12.705366,8.892122 6.647681,12.444009 z"
       id="path3871"
       inkscape:connector-curvature="0"
       sodipodi:nodetypes="cscscc" />
    <path
       style="color:#000000;fill:#000000;fill-opacity:1;fill-rule:nonzero;stroke:none;stroke-width:0.60000001999999997;marker:none;visibility:visible;display:inline;overflow:visible;enable-background:accumulate"
       d="m 76.359555,34.467573 c 0.733213,4.043127 0.240914,7.75145 -3.01092,9.196566 -3.251835,1.445114 -6.23496,-0.249246 -7.646982,-4.069709 -1.412021,-3.820464 -0.903957,-7.661625 2.213244,-9.427805 3.519551,-1.994149 7.556862,-0.594595 8.444658,4.300948 z"
       id="path3850-6"
       inkscape:connector-curvature="0"
       sodipodi:nodetypes="sssss" />
    <path
       style="color:#000000;fill:#000000;fill-opacity:1;fill-rule:nonzero;stroke:none;stroke-width:0.60000001999999997;marker:none;visibility:visible;display:inline;overflow:visible;enable-background:accumulate"
       d="m 52.906372,22.008338 c -2.854811,2.695536 -6.1931,4.208635 -9.385175,2.278346 -3.192076,-1.930289 -3.649462,-5.263512 -1.396351,-8.402859 2.253111,-3.139348 5.709825,-4.708189 9.08138,-3.054876 3.806735,1.866712 5.15684,5.915551 1.700146,9.179389 z"
       id="path3850"
       inkscape:connector-curvature="0"
       sodipodi:nodetypes="sssss" />
    <path
       style="color:#000000;fill:#000000;fill-opacity:1;fill-rule:nonzero;stroke:none;stroke-width:2;marker:none;visibility:visible;display:inline;overflow:visible;enable-background:accumulate"
       d="M 67.608903,83.405345 C 60.589669,94.060101 50.111151,99.071476 39.608607,92.152517 29.106063,85.233557 29.981506,65.556296 37.000741,54.901541 44.019974,44.246786 52.553375,42.027423 63.05592,48.946382 c 10.502544,6.918959 11.572216,23.804209 4.552983,34.458963 z"
       id="path2997"
       inkscape:connector-curvature="0"
       sodipodi:nodetypes="sssss" />
    <path
       style="color:#000000;fill:#ffffff;fill-opacity:1;fill-rule:nonzero;stroke:none;stroke-width:2;marker:none;visibility:visible;display:inline;overflow:visible;enable-background:accumulate"
       d="M 54.489194,80.4083 C 51.862839,85.059559 42.523739,88.801279 37.172392,84.610777 33.369434,81.632779 32.4569,69.521882 35.164319,65.41219 c 2.707419,-4.109691 13.966048,-2.576321 17.972075,0.122328 4.090433,2.755505 3.557756,10.968817 1.3528,14.873782 z"
       id="path3776"
       inkscape:connector-curvature="0"
       sodipodi:nodetypes="sssss" />
    <path
       style="color:#000000;fill:#ffffff;fill-opacity:1;fill-rule:nonzero;stroke:#000000;stroke-width:0.40000001000000002;stroke-miterlimit:4;stroke-opacity:1;stroke-dasharray:none;marker:none;visibility:visible;display:inline;overflow:visible;enable-background:accumulate"
       d="M 69.453319,49.164842 C 65.700193,57.94386 52.835834,55.537463 43.445871,51.298109 32.428428,46.323986 26.686972,35.552524 35.372706,27.108128 c 7.547276,-7.33757 19.47759,-9.201564 25.211379,-5.424208 6.14719,4.049701 13.007041,17.802086 8.869234,27.480922 z"
       id="path3779"
       inkscape:connector-curvature="0"
       sodipodi:nodetypes="sssss" />
    <path
       style="font-size:medium;font-style:normal;font-variant:normal;font-weight:normal;font-stretch:normal;text-indent:0;text-align:start;text-decoration:none;line-height:normal;letter-spacing:normal;word-spacing:normal;text-transform:none;direction:ltr;block-progression:tb;writing-mode:lr-tb;text-anchor:start;baseline-shift:baseline;color:#000000;fill:#000000;fill-opacity:1;fill-rule:nonzero;stroke:none;stroke-width:0.60000001999999997;marker:none;visibility:visible;display:inline;overflow:visible;enable-background:accumulate;font-family:Sans;-inkscape-font-specification:Sans"
       d="m 43.718918,38.461197 c -4.899281,-3.013679 -9.240806,-1.361104 -10.707076,1.022584 -0.748136,1.216232 -0.71783,3.031409 0.08423,4.904211 0.802061,1.872802 2.377912,3.817134 4.823513,5.321488 4.894928,3.010999 9.258874,1.611795 10.729551,-0.77906 0.750342,-1.219815 0.711749,-3.096221 -0.09547,-5.025973 -0.807217,-1.929752 -2.386974,-3.937559 -4.834751,-5.44325 z m -0.04533,0.241826 c 2.366601,1.455759 3.678991,3.560322 4.445921,5.393764 0.76693,1.833443 0.795959,3.581228 0.133839,4.590178 -0.442405,0.674146 -0.799721,1.82686 -3.827164,2.410093 -0.885427,0.170575 -1.016317,-0.518834 -2.939451,-0.95734 -1.888117,-0.430527 -2.777585,-0.438098 -3.323703,-0.826014 -1.372002,-0.974553 -2.954923,-4.103968 -4.632817,-5.118049 -1.334699,-2.184031 -0.752836,-3.482383 -0.159536,-4.563594 1.19271,-2.173559 5.573433,-3.838259 10.302909,-0.929034 z"
       id="path3841"
       inkscape:connector-curvature="0"
       sodipodi:nodetypes="ssssssssssssscss" />
    <path
       style="color:#000000;fill:#000000;fill-opacity:1;fill-rule:nonzero;stroke:none;stroke-width:2;marker:none;visibility:visible;display:inline;overflow:visible;enable-background:accumulate"
       d="m 44.804323,37.826033 c -2.933687,2.187056 -6.830266,1.203908 -8.249987,0.01892 -2.363949,-1.973099 -1.493645,-5.024314 3.480937,-6.41606 3.523886,-0.985883 6.889217,-1.844238 7.994503,-0.361622 1.105287,1.482615 -0.291764,4.571708 -3.225453,6.758764 z"
       id="path3782"
       inkscape:connector-curvature="0"
       sodipodi:nodetypes="sssss" />
    <path
       sodipodi:type="arc"
       style="color:#000000;fill:#ffffff;fill-opacity:1;fill-rule:nonzero;stroke:none;stroke-width:2;marker:none;visibility:visible;display:inline;overflow:visible;enable-background:accumulate"
       id="path3803"
       sodipodi:cx="31.435644"
       sodipodi:cy="33.333332"
       sodipodi:rx="3.3828382"
       sodipodi:ry="3.7953796"
       d="m 34.818482,33.333332 a 3.3828382,3.7953796 0 1 1 -6.765676,0 3.3828382,3.7953796 0 1 1 6.765676,0 z"
       transform="matrix(0.5286667,0.70914649,-0.63958997,0.47681251,47.117915,-2.6682362)" />
    <path
       transform="matrix(0.45314287,0.60783984,-0.50414738,0.37584045,45.406196,3.3846763)"
       d="m 34.818482,33.333332 a 3.3828382,3.7953796 0 1 1 -6.765676,0 3.3828382,3.7953796 0 1 1 6.765676,0 z"
       sodipodi:ry="3.7953796"
       sodipodi:rx="3.3828382"
       sodipodi:cy="33.333332"
       sodipodi:cx="31.435644"
       id="path3805"
       style="color:#000000;fill:#a892ff;fill-opacity:1;fill-rule:nonzero;stroke:none;stroke-width:2;marker:none;visibility:visible;display:inline;overflow:visible;enable-background:accumulate"
       sodipodi:type="arc" />
    <path
       sodipodi:type="arc"
       style="color:#000000;fill:#000000;fill-opacity:1;fill-rule:nonzero;stroke:none;stroke-width:2;marker:none;visibility:visible;display:inline;overflow:visible;enable-background:accumulate"
       id="path3807"
       sodipodi:cx="31.435644"
       sodipodi:cy="33.333332"
       sodipodi:rx="3.3828382"
       sodipodi:ry="3.7953796"
       d="m 34.818482,33.333332 a 3.3828382,3.7953796 0 1 1 -6.765676,0 3.3828382,3.7953796 0 1 1 6.765676,0 z"
       transform="matrix(0.37132541,0.49809098,-0.3762294,0.28047796,43.678935,9.9064857)" />
    <path
       transform="matrix(0.10069839,0.13507549,-0.09858484,0.07349472,42.697954,26.658832)"
       d="m 34.818482,33.333332 a 3.3828382,3.7953796 0 1 1 -6.765676,0 3.3828382,3.7953796 0 1 1 6.765676,0 z"
       sodipodi:ry="3.7953796"
       sodipodi:rx="3.3828382"
       sodipodi:cy="33.333332"
       sodipodi:cx="31.435644"
       id="path3809"
       style="color:#000000;fill:#ffffff;fill-opacity:1;fill-rule:nonzero;stroke:none;stroke-width:2;marker:none;visibility:visible;display:inline;overflow:visible;enable-background:accumulate"
       sodipodi:type="arc" />
    <path
       style="color:#000000;fill:#000000;fill-opacity:1;fill-rule:nonzero;stroke:none;stroke-width:2;marker:none;visibility:visible;display:inline;overflow:visible;enable-background:accumulate"
       d="m 48.462384,40.006721 c -1.906991,2.485953 0.250804,4.909686 1.094038,7.516181 0.710006,2.194675 3.23003,2.150279 5.282744,-2.393101 1.451916,-3.213601 0.165249,-7.386361 -0.848631,-8.855252 -1.013879,-1.468892 -3.378595,0.93001 -5.528153,3.73217 z"
       id="path3782-9"
       inkscape:connector-curvature="0"
       sodipodi:nodetypes="sssss" />
    <path
       sodipodi:type="arc"
       style="color:#000000;fill:#ffffff;fill-opacity:1;fill-rule:nonzero;stroke:none;stroke-width:2;marker:none;visibility:visible;display:inline;overflow:visible;enable-background:accumulate"
       id="path3803-7"
       sodipodi:cx="31.435644"
       sodipodi:cy="33.333332"
       sodipodi:rx="3.3828382"
       sodipodi:ry="3.7953796"
       d="m 34.818482,33.333332 a 3.3828382,3.7953796 0 1 1 -6.765676,0 3.3828382,3.7953796 0 1 1 6.765676,0 z"
       transform="matrix(0.48494616,0.70258184,-0.63366921,0.4373803,56.707442,5.8744123)" />
    <path
       transform="matrix(0.39546204,0.57293875,-0.49948044,0.34475859,55.410299,12.473474)"
       d="m 34.818482,33.333332 a 3.3828382,3.7953796 0 1 1 -6.765676,0 3.3828382,3.7953796 0 1 1 6.765676,0 z"
       sodipodi:ry="3.7953796"
       sodipodi:rx="3.3828382"
       sodipodi:cy="33.333332"
       sodipodi:cx="31.435644"
       id="path3805-3"
       style="color:#000000;fill:#a892ff;fill-opacity:1;fill-rule:nonzero;stroke:none;stroke-width:2;marker:none;visibility:visible;display:inline;overflow:visible;enable-background:accumulate"
       sodipodi:type="arc" />
    <path
       sodipodi:type="arc"
       style="color:#000000;fill:#000000;fill-opacity:1;fill-rule:nonzero;stroke:none;stroke-width:2;marker:none;visibility:visible;display:inline;overflow:visible;enable-background:accumulate"
       id="path3807-1"
       sodipodi:cx="31.435644"
       sodipodi:cy="33.333332"
       sodipodi:rx="3.3828382"
       sodipodi:ry="3.7953796"
       d="m 34.818482,33.333332 a 3.3828382,3.7953796 0 1 1 -6.765676,0 3.3828382,3.7953796 0 1 1 6.765676,0 z"
       transform="matrix(0.32329744,0.46838788,-0.3727466,0.25728253,53.433848,18.585703)" />
    <path
       transform="matrix(0.07938105,0.11500593,-0.09767223,0.06741674,51.838635,34.531957)"
       d="m 34.818482,33.333332 a 3.3828382,3.7953796 0 1 1 -6.765676,0 3.3828382,3.7953796 0 1 1 6.765676,0 z"
       sodipodi:ry="3.7953796"
       sodipodi:rx="3.3828382"
       sodipodi:cy="33.333332"
       sodipodi:cx="31.435644"
       id="path3809-0"
       style="color:#000000;fill:#ffffff;fill-opacity:1;fill-rule:nonzero;stroke:none;stroke-width:2;marker:none;visibility:visible;display:inline;overflow:visible;enable-background:accumulate"
       sodipodi:type="arc" />
    <path
       style="color:#000000;fill:#000000;fill-opacity:1;fill-rule:nonzero;stroke:none;stroke-width:2;marker:none;visibility:visible;display:inline;overflow:visible;enable-background:accumulate"
       d="m 44.732007,44.842285 c -0.283282,0.411105 -2.003914,0.51263 -3.809843,-0.731789 -1.805928,-1.24442 -2.510398,-2.85782 -2.227116,-3.268925 0.283283,-0.411106 1.805032,-0.347844 3.610961,0.896575 1.805929,1.24442 2.70928,2.693033 2.425998,3.104139 z"
       id="path3838"
       inkscape:connector-curvature="0"
       sodipodi:nodetypes="sssss" />
    <path
       style="color:#000000;fill:#000000;fill-opacity:1;fill-rule:nonzero;stroke:none;stroke-width:0.60000001999999997;marker:none;visibility:visible;display:inline;overflow:visible;enable-background:accumulate"
       d="m 37.084551,44.03593 c 0.651402,1.634958 3.305056,4.621832 6.111359,3.783017 -1.906063,-0.686236 -2.821282,-0.723078 -3.084801,-2.559184 -1.105925,0.790556 -3.026558,-1.223833 -3.026558,-1.223833 z"
       id="path3848"
       inkscape:connector-curvature="0"
       sodipodi:nodetypes="cccc" />
    <path
       style="color:#000000;fill:#000000;fill-opacity:1;fill-rule:nonzero;stroke:none;stroke-width:0.60000002;marker:none;visibility:visible;display:inline;overflow:visible;enable-background:accumulate"
       d="m 37.911586,97.140793 c -9.325573,2.452828 -17.508951,-3.032261 -18.786061,-5.583744 -1.069789,-2.137284 -2.63425,-13.82371 3.119279,-14.103951 3.579799,-0.174364 9.858253,7.4763 12.757384,3.292008 3.320416,-4.792331 11.646493,4.961017 12.318777,8.283947 0.396347,1.959043 4.384914,5.912131 -3.434409,6.173712 -1.98479,0.0664 -3.749627,1.352714 -5.97497,1.938028 z"
       id="path3875-9"
       inkscape:connector-curvature="0"
       sodipodi:nodetypes="sssssss" />
    <path
       sodipodi:type="arc"
       style="color:#000000;fill:#000000;fill-opacity:1;fill-rule:nonzero;stroke:none;stroke-width:0.40000001000000002;marker:none;visibility:visible;display:inline;overflow:visible;enable-background:accumulate"
       id="path3901"
       sodipodi:cx="16.569168"
       sodipodi:cy="18.262657"
       sodipodi:rx="1.63358"
       sodipodi:ry="1.6919222"
       d="m 18.202748,18.262657 a 1.63358,1.6919222 0 1 1 -3.26716,0 1.63358,1.6919222 0 1 1 3.26716,0 z"
       transform="matrix(0.39095154,-0.92041126,0.92041126,0.39095154,2.1469362,60.312919)" />
    <path
       sodipodi:type="arc"
       style="color:#000000;fill:#000000;fill-opacity:1;fill-rule:nonzero;stroke:none;stroke-width:0.40000001000000002;marker:none;visibility:visible;display:inline;overflow:visible;enable-background:accumulate"
       id="path3903"
       sodipodi:cx="18.611143"
       sodipodi:cy="18.262657"
       sodipodi:rx="1.5752379"
       sodipodi:ry="1.5752379"
       d="m 20.186381,18.262657 a 1.5752379,1.5752379 0 1 1 -3.150476,0 1.5752379,1.5752379 0 1 1 3.150476,0 z"
       transform="matrix(0.39095154,-0.92041126,0.92041126,0.39095154,2.0924799,59.435465)" />
    <path
       transform="matrix(0.39095154,-0.92041126,0.92041126,0.39095154,4.7659979,58.356038)"
       d="m 20.186381,18.262657 a 1.5752379,1.5752379 0 1 1 -3.150476,0 1.5752379,1.5752379 0 1 1 3.150476,0 z"
       sodipodi:ry="1.5752379"
       sodipodi:rx="1.5752379"
       sodipodi:cy="18.262657"
       sodipodi:cx="18.611143"
       id="path3907"
       style="color:#000000;fill:#000000;fill-opacity:1;fill-rule:nonzero;stroke:none;stroke-width:0.40000001000000002;marker:none;visibility:visible;display:inline;overflow:visible;enable-background:accumulate"
       sodipodi:type="arc" />
    <path
       style="color:#000000;fill:#000000;fill-opacity:1;fill-rule:nonzero;stroke:none;stroke-width:0.40000001000000002;marker:none;visibility:visible;display:inline;overflow:visible;enable-background:accumulate"
       d="M 69.983209,58.848825 C 60.180633,65.508282 47.799071,70.76729 31.977346,62.780465 21.71855,57.601814 26.558866,49.573323 29.618362,48.233394 c 3.611386,-1.581634 3.800586,1.048438 8.3875,3.276368 14.404166,4.414099 16.311409,2.27806 27.914651,-0.393164 5.268455,-1.149445 4.062696,7.732227 4.062696,7.732227 z"
       id="path3042"
       inkscape:connector-curvature="0"
       sodipodi:nodetypes="cssccc" />
  </g>
</svg>
