<?xml version="1.0" encoding="UTF-8" standalone="no"?>
<!-- Created with Inkscape (http://www.inkscape.org/) -->

<svg
   xmlns:dc="http://purl.org/dc/elements/1.1/"
   xmlns:cc="http://creativecommons.org/ns#"
   xmlns:rdf="http://www.w3.org/1999/02/22-rdf-syntax-ns#"
   xmlns:svg="http://www.w3.org/2000/svg"
   xmlns="http://www.w3.org/2000/svg"
   xmlns:xlink="http://www.w3.org/1999/xlink"
   xmlns:sodipodi="http://sodipodi.sourceforge.net/DTD/sodipodi-0.dtd"
   xmlns:inkscape="http://www.inkscape.org/namespaces/inkscape"
   width="50"
   height="50"
   id="svg2"
   version="1.1"
   inkscape:version="0.48.1 r9760"
   enable-background="new"
   sodipodi:docname="moskito4.svg"
   inkscape:export-filename="/home/jbw/privat/pukullalat/data/intermediate/moskito4_crash.png"
   inkscape:export-xdpi="269.34"
   inkscape:export-ydpi="269.34">
  <defs
     id="defs4">
    <filter
       inkscape:collect="always"
       id="filter3818">
      <feBlend
         inkscape:collect="always"
         mode="multiply"
         in2="BackgroundImage"
         id="feBlend3820" />
    </filter>
    <filter
       inkscape:collect="always"
       id="filter3868">
      <feBlend
         inkscape:collect="always"
         mode="multiply"
         in2="BackgroundImage"
         id="feBlend3870" />
    </filter>
  </defs>
  <sodipodi:namedview
     id="base"
     pagecolor="#ffffff"
     bordercolor="#666666"
     borderopacity="1.0"
     inkscape:pageopacity="0.0"
     inkscape:pageshadow="2"
     inkscape:zoom="12.12"
     inkscape:cx="9.6845401"
     inkscape:cy="25.194954"
     inkscape:document-units="px"
     inkscape:current-layer="layer3"
     showgrid="false"
     inkscape:window-width="1600"
     inkscape:window-height="842"
     inkscape:window-x="0"
     inkscape:window-y="26"
     inkscape:window-maximized="1" />
  <metadata
     id="metadata7">
    <rdf:RDF>
      <cc:Work
         rdf:about="">
        <dc:format>image/svg+xml</dc:format>
        <dc:type
           rdf:resource="http://purl.org/dc/dcmitype/StillImage" />
        <dc:title></dc:title>
      </cc:Work>
    </rdf:RDF>
  </metadata>
  <g
     inkscape:label="Background"
     inkscape:groupmode="layer"
     id="layer1"
     transform="translate(0,-1002.3622)"
     style="opacity:0.42666668;display:none;filter:url(#filter3818)"
     sodipodi:insensitive="true">
    <image
       y="1007.2043"
       x="-49.092407"
       id="image2993"
       xlink:href="file:///home/jbw/privat/pukullalat/data/sources/mosquito.jpg"
       height="34.762047"
       width="48.482632"
       transform="scale(-1,1)" />
  </g>
  <g
     inkscape:groupmode="layer"
     id="layer2"
     inkscape:label="Moskito"
     style="display:none;filter:url(#filter3868)">
    <path
       sodipodi:nodetypes="sssss"
       inkscape:connector-curvature="0"
       id="path3814"
       d="m 16.00587,16.089363 c 3.459887,3.238522 11.403089,2.242295 10.787913,4.60767 -0.659501,2.535806 -7.39153,2.179881 -10.851418,-1.058641 C 12.482477,16.39987 5.5348574,15.532065 7.3253874,13.619146 9.1159164,11.706227 12.545982,12.85084 16.00587,16.089363 z"
       style="color:#000000;fill:#ffffff;fill-opacity:1;fill-rule:nonzero;stroke:#000000;stroke-width:0.40000001;stroke-linecap:butt;stroke-linejoin:miter;stroke-miterlimit:4;stroke-opacity:1;stroke-dashoffset:0;marker:none;visibility:visible;display:inline;overflow:visible;enable-background:accumulate" />
    <path
       sodipodi:type="arc"
       style="color:#000000;fill:#000000;fill-opacity:1;fill-rule:nonzero;stroke:#000000;stroke-width:0.40000001;stroke-linecap:butt;stroke-linejoin:miter;stroke-miterlimit:4;stroke-opacity:1;stroke-dasharray:none;stroke-dashoffset:0;marker:none;visibility:visible;display:inline;overflow:visible;enable-background:accumulate"
       id="path3807"
       sodipodi:cx="35.561054"
       sodipodi:cy="23.143564"
       sodipodi:rx="2.8052804"
       sodipodi:ry="1.9389439"
       d="m 38.366335,23.143564 a 2.8052804,1.9389439 0 1 1 -5.610561,0 2.8052804,1.9389439 0 1 1 5.610561,0 z"
       transform="matrix(0.99398389,0.10952632,-0.10952632,0.99398389,-2.416251,-4.3784101)" />
    <path
       transform="matrix(0.9830856,-0.18314667,0.18314667,0.9830856,-5.1330142,6.6051503)"
       sodipodi:type="arc"
       style="color:#000000;fill:#ffffff;fill-opacity:1;stroke:#000000;stroke-width:0.40000001;stroke-opacity:1;marker:none;visibility:visible;display:inline;overflow:visible;enable-background:accumulate"
       id="path2997-1"
       sodipodi:cx="36.303631"
       sodipodi:cy="20.462046"
       sodipodi:rx="2.0627062"
       sodipodi:ry="2.1452146"
       d="m 38.366337,20.462046 a 2.0627062,2.1452146 0 1 1 -4.125412,0 2.0627062,2.1452146 0 1 1 4.125412,0 z" />
    <path
       sodipodi:type="arc"
       style="color:#000000;fill:#ffffff;fill-opacity:1;fill-rule:nonzero;stroke:#000000;stroke-width:0.40000001;stroke-opacity:1;marker:none;visibility:visible;display:inline;overflow:visible;enable-background:accumulate"
       id="path2997"
       sodipodi:cx="36.303631"
       sodipodi:cy="20.462046"
       sodipodi:rx="2.0627062"
       sodipodi:ry="2.1452146"
       d="m 38.366337,20.462046 a 2.0627062,2.1452146 0 1 1 -4.125412,0 2.0627062,2.1452146 0 1 1 4.125412,0 z"
       transform="matrix(0.9830856,-0.18314667,0.18314667,0.9830856,-8.4984097,6.5606927)" />
    <path
       sodipodi:type="arc"
       style="color:#000000;fill:#000000;fill-opacity:1;fill-rule:nonzero;stroke:#000000;stroke-width:0.40000001;stroke-linecap:butt;stroke-linejoin:miter;stroke-miterlimit:4;stroke-opacity:1;stroke-dasharray:none;stroke-dashoffset:0;marker:none;visibility:visible;display:inline;overflow:visible;enable-background:accumulate"
       id="path3785"
       sodipodi:cx="36.262375"
       sodipodi:cy="19.430693"
       sodipodi:rx="0.53630364"
       sodipodi:ry="0.53630364"
       d="m 36.798679,19.430693 a 0.53630364,0.53630364 0 1 1 -1.072608,0 0.53630364,0.53630364 0 1 1 1.072608,0 z"
       transform="matrix(0.9830856,-0.18314667,0.18314667,0.9830856,-7.8248432,7.0227037)" />
    <path
       transform="matrix(0.9830856,-0.18314667,0.18314667,0.9830856,-4.4471133,7.3586105)"
       sodipodi:type="arc"
       style="color:#000000;fill:#000000;fill-opacity:1;fill-rule:nonzero;stroke:#000000;stroke-width:0.40000001;stroke-linecap:butt;stroke-linejoin:miter;stroke-miterlimit:4;stroke-opacity:1;stroke-dasharray:none;stroke-dashoffset:0;marker:none;visibility:visible;display:inline;overflow:visible;enable-background:accumulate"
       id="path3785-8"
       sodipodi:cx="36.262375"
       sodipodi:cy="19.430693"
       sodipodi:rx="0.53630364"
       sodipodi:ry="0.53630364"
       d="m 36.798679,19.430693 a 0.53630364,0.53630364 0 1 1 -1.072608,0 0.53630364,0.53630364 0 1 1 1.072608,0 z" />
    <path
       style="color:#000000;fill:#000000;fill-opacity:1;fill-rule:nonzero;stroke:#000000;stroke-width:0.40000001;stroke-linecap:butt;stroke-linejoin:miter;stroke-miterlimit:4;stroke-opacity:1;stroke-dasharray:none;stroke-dashoffset:0;marker:none;visibility:visible;display:inline;overflow:visible;enable-background:accumulate"
       d="m 32.553857,21.489335 c 1.766665,0.01336 3.605527,0.685708 5.267007,1.594365 0.573095,0.313424 0.547528,1.645062 1.068172,1.99737 0.406562,0.275111 1.784108,-0.680835 2.147564,-0.40085 1.843592,1.420197 3.729967,3.374397 3.702493,3.62953 0.02942,-0.147932 -2.111277,-1.44524 -4.035503,-2.442623 -0.485247,-0.251517 -1.988803,0.56241 -2.513366,0.30658 -0.486133,-0.237088 -0.404248,-1.461828 -0.895846,-1.686054 -2.305781,-1.051707 -4.521945,-1.8743 -5.243868,-1.645628 -1.492404,0.472725 0.503347,-1.35269 0.503347,-1.35269 z"
       id="path3805"
       inkscape:connector-curvature="0"
       sodipodi:nodetypes="cssscssssc" />
    <path
       style="color:#000000;fill:#000000;fill-opacity:1;fill-rule:nonzero;stroke:#000000;stroke-width:0.40000001;stroke-linecap:butt;stroke-linejoin:miter;stroke-miterlimit:4;stroke-opacity:1;stroke-dashoffset:0;marker:none;visibility:visible;display:inline;overflow:visible;enable-background:accumulate"
       d="m 28.545118,21.145093 c 0.208641,1.119932 -1.562071,3.894882 -8.205834,4.547291 -6.668581,0.654848 -12.6263533,8.890287 -12.8349943,7.770355 -0.208641,-1.119933 3.5667413,-9.455145 8.0374703,-11.059078 5.56668,-1.99712 12.794717,-2.3785 13.003358,-1.258568 z"
       id="path3809"
       inkscape:connector-curvature="0"
       sodipodi:nodetypes="sssss" />
    <path
       style="color:#000000;fill:#ffffff;fill-opacity:1;fill-rule:nonzero;stroke:#000000;stroke-width:0.40000001;stroke-linecap:butt;stroke-linejoin:miter;stroke-miterlimit:4;stroke-opacity:1;stroke-dashoffset:0;marker:none;visibility:visible;display:inline;overflow:visible;enable-background:accumulate"
       d="m 23.771141,11.369524 c 3.459888,3.238523 4.813171,7.41459 3.022642,9.327509 -1.790529,1.912919 -6.046834,0.838306 -9.506721,-2.400217 C 13.827174,15.058294 6.6957834,10.95154 8.4863134,9.0386209 10.276842,7.125702 20.311253,8.131002 23.771141,11.369524 z"
       id="path3811"
       inkscape:connector-curvature="0"
       sodipodi:nodetypes="sssss" />
    <path
       style="color:#000000;fill:none;stroke:#000000;stroke-width:0.40000001;stroke-linecap:butt;stroke-linejoin:miter;stroke-miterlimit:4;stroke-opacity:1;stroke-dasharray:none;stroke-dashoffset:0;marker:none;visibility:visible;display:inline;overflow:visible;enable-background:accumulate"
       d="m 25.821506,22.743557 -5.367671,4.524955 -1.392274,7.393243"
       id="path3816"
       inkscape:connector-curvature="0"
       sodipodi:nodetypes="ccc" />
    <path
       style="color:#000000;fill:none;stroke:#000000;stroke-width:0.40000001;stroke-linecap:butt;stroke-linejoin:miter;stroke-miterlimit:4;stroke-opacity:1;stroke-dasharray:none;stroke-dashoffset:0;marker:none;visibility:visible;display:inline;overflow:visible;enable-background:accumulate"
       d="M 27.735209,22.429002 22.676877,26.8124 24.326425,37.919279"
       id="path3816-8"
       inkscape:connector-curvature="0"
       sodipodi:nodetypes="ccc" />
    <path
       style="color:#000000;fill:none;stroke:#000000;stroke-width:0.40000001;stroke-linecap:butt;stroke-linejoin:miter;stroke-miterlimit:4;stroke-opacity:1;stroke-dasharray:none;stroke-dashoffset:0;marker:none;visibility:visible;display:inline;overflow:visible;enable-background:accumulate"
       d="m 27.891878,22.819455 -3.162518,4.198068 2.562456,10.601094"
       id="path3816-7"
       inkscape:connector-curvature="0"
       sodipodi:nodetypes="ccc" />
    <path
       style="color:#000000;fill:none;stroke:#000000;stroke-width:0.40000001;stroke-linecap:butt;stroke-linejoin:miter;stroke-miterlimit:4;stroke-opacity:1;stroke-dasharray:none;stroke-dashoffset:0;marker:none;visibility:visible;display:inline;overflow:visible;enable-background:accumulate"
       d="m 29.963467,24.02815 1.480013,4.34031 -0.472249,5.123648"
       id="path3816-9"
       inkscape:connector-curvature="0"
       sodipodi:nodetypes="ccc" />
    <path
       style="color:#000000;fill:none;stroke:#000000;stroke-width:0.40000001;stroke-linecap:butt;stroke-linejoin:miter;stroke-miterlimit:4;stroke-opacity:1;stroke-dasharray:none;stroke-dashoffset:0;marker:none;visibility:visible;display:inline;overflow:visible;enable-background:accumulate"
       d="m 28.86367,23.981258 0.825552,4.881871 -0.648025,3.729622"
       id="path3816-3"
       inkscape:connector-curvature="0"
       sodipodi:nodetypes="ccc" />
    <path
       style="color:#000000;fill:none;stroke:#000000;stroke-width:0.40000001;stroke-linecap:butt;stroke-linejoin:miter;stroke-miterlimit:4;stroke-opacity:1;stroke-dasharray:none;stroke-dashoffset:0;marker:none;visibility:visible;display:inline;overflow:visible;enable-background:accumulate"
       d="m 28.205215,23.60036 -0.09135,4.465194 -0.686241,1.722474"
       id="path3816-88"
       inkscape:connector-curvature="0"
       sodipodi:nodetypes="ccc" />
  </g>
  <g
     inkscape:groupmode="layer"
     id="layer3"
     inkscape:label="Crash">
    <path
       transform="translate(24.834983,15.759076)"
       style="opacity:1;display:inline;filter:url(#filter3868);color:#000000;fill:none;stroke:#000000;stroke-width:1.19999999999999996;stroke-linecap:round;stroke-linejoin:round;stroke-miterlimit:4;stroke-opacity:1;stroke-dashoffset:0;marker:none;visibility:visible;overflow:visible;enable-background:accumulate;stroke-dasharray:none"
       inkscape:transform-center-x="1.557588"
       inkscape:transform-center-y="-0.84531799"
       d="m 17.677895,23.741624 -8.4448138,0.388369 -2.7517736,5.536662 -8.6467865,-7.378736 -3.4595143,9.699082 -1.8438759,-10.595949 -13.3804759,1.207143 5.09389,-11.727317 -8.444948,1.843994 6.038373,-10.4673201 -3.348521,-8.0609584 6.294496,-3.4961192 -1.09891,-6.5315653 13.0560364,8.768926 3.29316536,-8.496263 5.79301214,7.1962378 6.2299781,-6.5768608 2.123398,14.11078671 9.611911,-2.26533251 -7.94182,9.781397 6.779309,5.3241328 -6.459172,2.780734 z"
       id="path3003"
       inkscape:connector-curvature="0"
       sodipodi:nodetypes="ccccccccccccccccccccccc" />
  </g>
</svg>
