<?xml version="1.0" encoding="UTF-8" standalone="no"?>
<!-- Created with Inkscape (http://www.inkscape.org/) -->
<svg xmlns:dc="http://purl.org/dc/elements/1.1/" xmlns:cc="http://creativecommons.org/ns#" xmlns:rdf="http://www.w3.org/1999/02/22-rdf-syntax-ns#" xmlns:svg="http://www.w3.org/2000/svg" xmlns="http://www.w3.org/2000/svg" xmlns:sodipodi="http://sodipodi.sourceforge.net/DTD/sodipodi-0.dtd" xmlns:inkscape="http://www.inkscape.org/namespaces/inkscape" width="250.00002" height="250.00002" id="svg2" version="1.1" inkscape:version="0.47pre4 " sodipodi:docname="Осторожно - Комары.svg">
  <defs id="defs4">
    <inkscape:perspective sodipodi:type="inkscape:persp3d" inkscape:vp_x="0 : 526.18109 : 1" inkscape:vp_y="0 : 1000 : 0" inkscape:vp_z="744.09448 : 526.18109 : 1" inkscape:persp3d-origin="372.04724 : 350.78739 : 1" id="perspective10"/>
    <inkscape:perspective id="perspective2824" inkscape:persp3d-origin="0.5 : 0.33333333 : 1" inkscape:vp_z="1 : 0.5 : 1" inkscape:vp_y="0 : 1000 : 0" inkscape:vp_x="0 : 0.5 : 1" sodipodi:type="inkscape:persp3d"/>
    <inkscape:perspective sodipodi:type="inkscape:persp3d" inkscape:vp_x="0 : 526.18109 : 1" inkscape:vp_y="0 : 1000 : 0" inkscape:vp_z="744.09448 : 526.18109 : 1" inkscape:persp3d-origin="372.04724 : 350.78739 : 1" id="perspective10-4"/>
    <inkscape:perspective id="perspective2390" inkscape:persp3d-origin="372.04724 : 350.78739 : 1" inkscape:vp_z="744.09448 : 526.18109 : 1" inkscape:vp_y="0 : 1000 : 0" inkscape:vp_x="0 : 526.18109 : 1" sodipodi:type="inkscape:persp3d"/>
    <inkscape:perspective id="perspective10-40" inkscape:persp3d-origin="372.04724 : 350.78739 : 1" inkscape:vp_z="744.09448 : 526.18109 : 1" inkscape:vp_y="0 : 1000 : 0" inkscape:vp_x="0 : 526.18109 : 1" sodipodi:type="inkscape:persp3d"/>
    <inkscape:perspective sodipodi:type="inkscape:persp3d" inkscape:vp_x="0 : 526.18109 : 1" inkscape:vp_y="0 : 1000 : 0" inkscape:vp_z="744.09448 : 526.18109 : 1" inkscape:persp3d-origin="372.04724 : 350.78739 : 1" id="perspective10-4-1"/>
    <inkscape:perspective id="perspective2390-5" inkscape:persp3d-origin="372.04724 : 350.78739 : 1" inkscape:vp_z="744.09448 : 526.18109 : 1" inkscape:vp_y="0 : 1000 : 0" inkscape:vp_x="0 : 526.18109 : 1" sodipodi:type="inkscape:persp3d"/>
    <inkscape:perspective id="perspective10-45" inkscape:persp3d-origin="372.04724 : 350.78739 : 1" inkscape:vp_z="744.09448 : 526.18109 : 1" inkscape:vp_y="0 : 1000 : 0" inkscape:vp_x="0 : 526.18109 : 1" sodipodi:type="inkscape:persp3d"/>
  </defs>
  <sodipodi:namedview id="base" pagecolor="#ffffff" bordercolor="#666666" borderopacity="1.0" inkscape:pageopacity="0.0" inkscape:pageshadow="2" inkscape:zoom="0.7" inkscape:cx="42.423918" inkscape:cy="190.89892" inkscape:document-units="px" inkscape:current-layer="layer1" showgrid="false" inkscape:window-width="1280" inkscape:window-height="904" inkscape:window-x="-4" inkscape:window-y="-4" inkscape:window-maximized="1"/>
  <metadata id="metadata7">
    <rdf:RDF>
      <cc:Work rdf:about="">
        <dc:format>image/svg+xml</dc:format>
        <dc:type rdf:resource="http://purl.org/dc/dcmitype/StillImage"/>
        <dc:title/>
      </cc:Work>
    </rdf:RDF>
  </metadata>
  <g inkscape:label="Layer 1" inkscape:groupmode="layer" id="layer1" transform="translate(-3.76229, -5.74274)">
    <g id="g3683" transform="matrix(1.0102, 0, 0, 1.0102, 25.9382, -210.422)">
      <rect ry="9.8489876" rx="9.8489876" transform="matrix(0.707107, 0.707107, -0.707107, 0.707107, 0, 0)" y="76.456116" x="220.40285" height="180.74828" width="180.74828" id="rect3649" style="fill:#ecbd15;fill-opacity:1;stroke:none"/>
      <path id="path3625" d="m 73.875,267.4375 c -1.037956,-0.10363 -2.014235,0.33309 -2.78125,0.9375 -0.767015,0.60441 -1.396585,1.3855 -2,2.3125 -1.206829,1.85399 -2.250589,4.23983 -3.125,6.625 -1.748823,4.77033 -2.84375,9.5625 -2.84375,9.5625 -0.01847,0.0821 -0.02895,0.16592 -0.03125,0.25 -0.05101,1.46266 0.503012,3.00899 1.375,4.8125 0.871988,1.80351 2.121565,3.83299 3.59375,6.03125 2.944369,4.39653 6.850281,9.42588 10.78125,14.21875 3.930969,4.79287 7.870639,9.34225 10.84375,12.75 1.276474,1.46309 2.282363,2.56746 3.125,3.53125 -2.022613,0.86638 -3.958073,1.97983 -5.75,2.90625 -2.770055,1.98101 -4.213321,2.34985 -5.34375,2.15625 -2.081705,-1.28845 -4.229291,-1.73466 -6.53125,-1.125 -3.567226,1.26879 -5.263317,3.81504 -5.625,7.40625 -0.361683,3.59121 2.723509,6.45351 6.0625,7.53125 1.689027,0.54518 3.006081,1.57821 3.0625,4.28125 0.105209,5.04061 -0.103045,9.64399 0.4375,13.1875 0.667335,4.37468 2.107634,7.13214 3.03125,10.59375 -0.418534,-3.86369 -1.379086,-7.73006 -1.71875,-11.59375 -0.473524,-5.38635 -0.309484,-10.7699 0.15625,-16.15625 0.331548,-1.2675 1.326511,-2.02067 2.40625,-2.5 1.206502,-0.53561 2.86793,-0.0896 4.125,0.46875 1.732102,0.75487 3.438947,1.4287 5.125,1.96875 -0.400954,1.06262 -0.896685,2.46925 -1.15625,3.90625 -0.284398,1.57448 -1.873776,4.81711 -1.0625,7.28125 1.0207,0.72862 3.680309,12.8199 8.09375,19.34375 -2.431099,1.97341 -2.591712,-0.10911 -5.21875,-0.40625 -1.978206,-0.22375 -3.840444,1.4774 -4.28125,3.75 0.214061,2.55549 1.886488,3.9266 4.0625,3.9375 2.536508,0.0127 2.935992,-2.17838 4.375,-1.96875 1.796393,0.26169 0.75066,2.64829 -0.1875,4.34375 -1.627274,2.94084 -3.34375,6.45297 -3.34375,6.65625 0,0.25254 -0.79644,1.91646 -0.1875,2.375 0.618153,0.46548 1.530775,-0.31356 1.96875,-1.28125 1.587506,-3.50753 3.136885,-6.02745 5.125,-9.4375 0.31816,-0.54572 1.49553,-0.41745 1.90625,0.0625 0.24581,1.93106 -0.13056,3.9767 0.65625,6.09375 0.76614,2.06144 1.59442,5.94332 2.9375,5.46875 1.59477,-0.5635 -1.62572,-6.79856 -0.75,-11.03125 0.027,-1.3916 0.0739,-1.93975 1.59375,-1.96875 2.74481,-0.0523 6.55753,-0.28376 9.5,0.4375 1.62711,0.39884 3.19824,1.22675 4.5,2.28125 1.40719,1.13991 2.08236,2.98308 3.40625,4.21875 0.99443,0.92816 2.10065,1.7914 3.34375,2.34375 1.79609,0.79806 3.87934,0.79873 5.75,1.3125 1.61556,0.44371 2.94333,0.003 1.8125,2.59375 -0.46825,3.97713 2.0945,2.71456 3.28125,-0.34375 0.23092,-2.27587 0.68084,-3.07551 -1.1875,-3.75 -1.46593,-0.51442 -7.58575,-0.93591 -7.59375,-3.21875 -0.001,-0.37936 1.02175,-0.98179 2.40625,-1.46875 1.04267,-0.36674 1.18472,-1.76724 2.21875,-2.1875 0.87733,-0.35657 2.17627,-0.66647 2.8125,0 1.21831,1.27622 3.29392,2.52172 4.125,1.625 0.96208,-1.03807 -1.62581,-5.4245 -4.6875,-5.375 -2.37198,0.0229 -4.33315,1.56667 -5.625,4.09375 -0.28296,0.59636 -4.27084,0.86003 -5.5625,-2.3125 -0.71703,-1.76113 -0.15993,-2.19361 -1.375,-3.65625 -0.41723,-0.50223 -0.78236,-0.89283 -1.15625,-1.25 0.9371,-6.1315 -0.17385,-20.44049 -0.0312,-29.75 l -9.4375,-7.125 c 0.36486,-0.40917 0.73939,-0.82223 1.09375,-1.28125 0.89901,-1.16455 1.29529,-3.08667 2.59375,-4 1.72857,-1.21587 4.4048,-1.15983 6.59375,-1.6875 12.3647,-2.98063 24.95316,-2.77178 37.0625,-2.5 6.8228,1.13606 7.64787,-5.67788 0.625,-5.96875 -22.32758,-0.87892 -30.18856,1.40827 -38.5625,3.375 -7.72252,3.26432 -10.94288,-2.48124 -19.84375,-3.84375 2.29756,-4.19812 5.54617,-10.17489 9.4375,-17.625 3.02945,-5.79999 6.06691,-11.73305 8.3125,-16.5625 1.1228,-2.41472 2.03977,-4.56603 2.6875,-6.28125 0.64773,-1.71522 1.10392,-2.80359 1,-4.03125 -0.25382,-2.99865 -1.63709,-6.5776 -3.21875,-9.5 -0.79083,-1.4612 -1.62447,-2.74566 -2.46875,-3.71875 -0.42214,-0.48654 -0.84181,-0.89737 -1.3125,-1.21875 -0.47069,-0.32138 -1.02007,-0.60967 -1.75,-0.53125 -1.84999,0.19875 -3.2177,1.64044 -4.46875,3.53125 -1.25105,1.89081 -2.40357,4.41158 -3.53125,7.375 -2.25537,5.92683 -4.33797,13.61194 -6.125,21.28125 -2.621996,11.25273 -4.222655,20.31622 -5.09375,25.46875 -1.250752,-3.76386 -4.297,-13.00773 -8.875,-26.0625 -2.714597,-7.74103 -5.526724,-15.49156 -7.8125,-21.34375 -1.142888,-2.92609 -2.14113,-5.39319 -2.96875,-7.15625 -0.41381,-0.88153 -0.784382,-1.57851 -1.125,-2.125 -0.170359,-0.27324 -0.3269,-0.49575 -0.5313,-0.71875 -0.2044,-0.223 -0.424666,-0.55508 -1.125,-0.625 z m -0.5625,2.71875 c 0.240657,0.38611 0.578536,1.04373 0.96875,1.875 0.780428,1.66253 1.805485,4.07049 2.9375,6.96875 2.264031,5.79651 5.040521,13.52356 7.75,21.25 4.405365,12.56248 7.147354,20.87118 8.5625,25.125 -0.62365,-0.71398 -1.106256,-1.27512 -1.875,-2.15625 -2.967408,-3.40122 -6.910089,-7.92945 -10.8125,-12.6875 -3.902411,-4.75805 -7.764516,-9.72873 -10.625,-14 -1.430242,-2.13563 -2.618203,-4.08885 -3.40625,-5.71875 -0.773611,-1.60004 -1.101263,-2.8998 -1.09375,-3.53125 0.04307,-0.18558 1.045762,-4.58427 2.6875,-9.0625 0.838023,-2.28591 1.862189,-4.53782 2.875,-6.09375 0.506406,-0.77797 1.01152,-1.38307 1.4375,-1.71875 0.279806,-0.22049 0.423119,-0.21164 0.59375,-0.25 z m 42.40625,0.28125 c 0.0247,0.012 0.0353,0.0225 0.0937,0.0625 0.18971,0.12953 0.48641,0.40541 0.8125,0.78125 0.65218,0.75168 1.43134,1.9106 2.15625,3.25 1.44982,2.67879 2.70771,6.12325 2.90625,8.46875 -0.002,-0.0195 -0.23539,1.29528 -0.84375,2.90625 -0.60836,1.61097 -1.5178,3.71258 -2.625,6.09375 -2.21439,4.76235 -5.19928,10.68787 -8.21875,16.46875 -4.40553,8.43454 -7.94578,14.89962 -9.96875,18.5625 -0.363411,-0.0135 -0.71262,-0.0331 -1.09375,-0.0312 -0.09458,4.6e-4 -0.186764,-0.003 -0.28125,0 0.896406,-5.24983 2.77007,-15.62911 5.28125,-26.40625 1.77304,-7.60928 3.82278,-15.24729 6,-20.96875 1.08861,-2.86073 2.21132,-5.22668 3.28125,-6.84375 1.01643,-1.53622 1.97633,-2.2303 2.5,-2.34375 z m -4.375,74.65625 c 2.60949,1.91704 8.875,6.46875 8.875,6.46875 0,0 0.31563,12.1369 0.75,18.1875 0.20868,2.90684 0.67052,6.94949 0.96875,9.625 -0.50032,-0.35745 -1.04432,-0.66316 -1.78125,-0.96875 -3.36438,-1.39514 -7.17698,-1.19142 -10.84375,-1.21875 1.02569,-6.68889 1.47712,-13.09328 2.0625,-19.5625 l -5.28125,-9.46875 c 1.82881,-0.63095 3.58347,-1.63655 5.25,-3.0625 z m -15.9375,3.34375 c 2.551986,0.56638 5.02657,0.7929 7.40625,0.5 2.43857,3.15369 4.8527,6.28882 6.78125,9.1875 -0.0788,0 -1.61371,14.12101 -1.625,19.03125 -3.29515,-0.11831 -7.84352,-0.68374 -9.40625,0.625 -0.09217,0.0841 -0.163591,0.11335 -0.25,0.1875 -0.0363,-0.70915 -0.167807,-2.97776 -0.59375,-3.9375 -2.437021,-5.49107 -6.445076,-16.15147 -6.3125,-16.40625 0.880034,-1.69124 1.94494,-4.1644 2.59375,-5.5625 0.59536,-1.28292 1.067052,-2.6093 1.40625,-3.625 z" style="fill:#000000;stroke:none"/>
      <path id="rect3651" d="m 107.01619,225.76594 c -2.87543,-2.87544 -7.598579,-2.87544 -10.474017,0 L -10.16466,332.47277 c -2.875436,2.87543 -2.875436,7.59858 0,10.47402 L 96.542173,449.65362 c 2.875435,2.87544 7.598587,2.87544 10.474017,0 L 213.72302,342.94679 c 2.87544,-2.87544 2.87544,-7.59859 0,-10.47402 L 107.01619,225.76594 z m -2.82843,2.82842 106.70684,106.70684 c 1.35741,1.35741 1.35741,3.45975 0,4.81716 L 104.18776,446.82519 c -1.35741,1.35742 -3.45975,1.35742 -4.81716,0 L -7.3362328,340.11836 c -1.3574117,-1.35741 -1.3574117,-3.45975 0,-4.81716 L 99.3706,228.59436 c 1.35741,-1.35741 3.45975,-1.35741 4.81716,0 z" style="font-size:medium;font-style:normal;font-variant:normal;font-weight:normal;font-stretch:normal;text-indent:0;text-align:start;text-decoration:none;line-height:normal;letter-spacing:normal;word-spacing:normal;text-transform:none;direction:ltr;block-progression:tb;writing-mode:lr-tb;text-anchor:start;color:#000000;fill:#000000;fill-opacity:1;stroke:none;stroke-width:4;marker:none;visibility:visible;display:inline;overflow:visible;enable-background:accumulate;font-family:Bitstream Vera Sans;-inkscape-font-specification:Bitstream Vera Sans"/>
    </g>
  </g>
</svg>